<?xml version="1.0" encoding="UTF-8"?>
<svg id="Layer_2" data-name="Layer 2" xmlns="http://www.w3.org/2000/svg" viewBox="0 0 39.4 39.4">
  <defs>
    <style>
      .cls-1 {
        fill: #fff;
        stroke-width: 0px;
      }
    </style>
  </defs>
  <g id="Layer_1-2" data-name="Layer 1">
    <g>
      <polygon class="cls-1" points="30.22 29.94 29.29 29.5 29.29 29.5 29.61 30.48 30.22 29.94"/>
      <path class="cls-1" d="M36.22,18.72c0-.19-.12-.21-.27-.21h-.24v.43h.24c.15,0,.27-.03.27-.22Z"/>
      <path class="cls-1" d="M31.13,21.01c-.65,5.74-5.52,10.2-11.44,10.2s-10.79-4.46-11.44-10.2H1.75c.67,9.33,8.45,16.69,17.95,16.69s17.28-7.36,17.95-16.69h-6.51ZM7.15,27.22l-.41.25-.6-.95-.44.28.57.91c.09.15.05.35-.1.44l-.12.07-1.01-1.62,2.09-1.31.95,1.52-.39.24-.67-1.08-.47.29.6.95ZM10.32,30.25l-.19-.23c-.08-.09-.1-.21-.09-.33.02-.17-.11-.3-.21-.39-.13-.12-.32-.2-.46-.04-.12.14-.06.24.29.77.11.16.43.61.06,1.02-.3.33-.79.35-1.29-.1-.41-.37-.59-.9-.19-1.35l.16.2c.08.1.13.24.1.37-.04.2.1.37.22.48.14.13.39.28.56.1.35-.39-.96-1.12-.34-1.8.34-.37.85-.23,1.18.07.38.35.58.83.2,1.25ZM14.05,32.12l-.69-.35-.89,1.79-.48-.24.89-1.8-.48-.24c-.12-.06-.17-.21-.11-.33l.09-.18,1.88.93-.2.41ZM17.42,35.07l-.14-.58-1.22-.22-.35.49-.48-.09,1.54-2.21.54.1.64,2.61-.51-.09ZM22.67,34.92l-.24-1.72h0s-.39,1.19-.39,1.19l-.41.06-.69-1.02h0s.24,1.71.24,1.71l-.51.07-.34-2.44.7-.1.71,1,.4-1.15.71-.1.34,2.44-.5.07ZM26.57,32.67l-.51.25.38.79-.49.24-1.07-2.22,1-.48c.56-.27.94-.02,1.11.34.17.36.13.81-.42,1.08ZM31.24,30.43l-.54-.25-.93.83.17.58-.37.33-.8-2.58.41-.36,2.45,1.1-.39.35ZM33.56,27.55l-.28.47-2.11-1.27.57-.95c.32-.53.78-.53,1.12-.33.29.17.48.5.35.89v-.02s1.15-.12,1.15-.12l-.34.57-1.08.07-.14.23.76.46Z"/>
      <path class="cls-1" d="M25.93,31.7l-.38.18.32.66.38-.18c.22-.11.4-.26.27-.54-.14-.28-.36-.23-.59-.13Z"/>
      <polygon class="cls-1" points="16.95 32.96 16.37 33.82 17.18 33.96 16.95 32.96 16.95 32.96"/>
      <path class="cls-1" d="M8.45,17.24c1.13-5.18,5.73-9.05,11.25-9.05s9.97,3.76,11.19,8.81h6.61c-1.3-8.66-8.77-15.29-17.79-15.29S3.21,8.34,1.91,17h6.55v.25ZM29.75,9.35c.7-.55,1.72-.43,2.27.27.55.7.43,1.72-.28,2.27-.7.55-1.72.42-2.26-.28-.55-.7-.43-1.71.27-2.26ZM27.84,5.98l.58.37-1.54,2.38c-.09.13-.26.17-.39.08l-.34-.22,1.69-2.62ZM22.16,3.81l1.3.33c.78.2,1.25.84,1,1.84-.22.88-.83,1.42-1.76,1.18l-1.3-.33.76-3.02ZM16.23,3.98c.2-.03.38.1.41.3l.24,1.56c.05.34.19.66.74.57.48-.07.61-.3.54-.77l-.29-1.92.68-.1.29,1.92c.13.83-.3,1.31-1.13,1.44-.83.13-1.37-.2-1.5-1.04l-.29-1.92.32-.05ZM12.71,5.18l.29.5-.84.5,1.3,2.18-.59.35-1.3-2.18-.58.34c-.15.09-.35.04-.44-.11l-.13-.22,2.28-1.36ZM8.06,11.99l.3-.28c.1-.09.24-.14.37-.11.28.05.49-.15.62-.32.15-.19.32-.52.07-.72-.52-.41-1.33,1.31-2.25.59-.5-.4-.37-1.06-.02-1.5.4-.51.99-.81,1.56-.36l-.31.3c-.09.08-.21.13-.33.12-.25-.03-.41.16-.52.3-.13.17-.22.43-.01.59.18.14.31.06.94-.44.19-.15.73-.6,1.29-.17.45.35.51.97-.01,1.64-.43.55-1.09.83-1.69.36Z"/>
      <path class="cls-1" d="M8.19,19.7c0-.72.07-1.42.19-2.1H1.83c-.08.69-.12,1.39-.12,2.1,0,.24,0,.47.01.7h6.49c-.01-.23-.02-.47-.02-.7ZM3.48,19.72c-.32,0-.61-.16-.61-.51l.3.05c.03.19.2.21.32.21s.28-.03.28-.18c0-.3-.85-.11-.85-.64,0-.29.28-.43.53-.43.3,0,.57.13.57.46l-.3-.04c-.04-.17-.18-.17-.28-.17s-.22.04-.22.16c0,.11.07.13.43.22.11.03.42.09.42.42,0,.26-.2.46-.6.46ZM5.27,19.68h-1.04v-1.43h.31v1.16h.73v.26ZM6.36,19.69l-.37-.4-.19.26v.14h-.32v-1.43h.32v.81l.56-.81h.39l-.54.81.58.62h-.43Z"/>
      <path class="cls-1" d="M32.59,25.92c-.27-.17-.43,0-.56.21l-.22.36.63.38.22-.36c.13-.22.19-.43-.08-.6Z"/>
      <path class="cls-1" d="M23.78,5.87c.15-.61.03-1.05-.62-1.22l-.47-.12-.48,1.91.59.15c.39.1.81-.05.98-.72Z"/>
      <path class="cls-1" d="M31.33,11.36c.41-.32.49-.92.17-1.33-.32-.41-.93-.48-1.34-.16-.41.32-.48.93-.16,1.34.32.41.92.48,1.33.16Z"/>
      <path class="cls-1" d="M31.21,19.7c0,.24,0,.47-.02.7h6.49c0-.23.01-.47.01-.7,0-.71-.04-1.41-.12-2.1h-6.56c.13.68.19,1.38.19,2.1ZM35.39,18.26h.65c.36,0,.5.23.5.46,0,.19-.1.39-.34.44h.01l.4.53h-.38l-.36-.51h-.15v.51h-.32v-1.43ZM34.43,18.24c.27,0,.51.15.63.37-.12.06-.13.07-.27.14-.07-.12-.21-.21-.36-.21-.23,0-.42.19-.42.42s.19.42.42.42c.16,0,.3-.09.37-.22.14.07.14.08.27.14-.12.23-.36.39-.64.39-.4,0-.73-.32-.73-.73s.32-.73.73-.73ZM32.4,18.66c0-.29.28-.43.54-.43.3,0,.57.13.57.46l-.3-.04c-.04-.17-.18-.17-.28-.17s-.22.04-.22.16c0,.11.07.13.43.22.11.03.42.09.42.42,0,.26-.2.46-.6.46-.32,0-.61-.16-.61-.51l.3.05c.03.19.2.21.32.21.11,0,.28-.03.28-.18,0-.3-.85-.11-.85-.64Z"/>
      <path class="cls-1" d="M23.78,17.65c-1.16-1.12-2.68-1.74-4.28-1.74-1.28,0-2.56.43-3.61,1.19,0-.05,0-.1,0-.14,0-2.03,1.65-3.68,3.68-3.68,1.28,0,2.41.66,3.07,1.65.11.17.3.27.51.27h1.75c-.74-2.23-2.85-3.85-5.33-3.85-3.09,0-5.61,2.52-5.61,5.61,0,.64.11,1.26.31,1.83-.21.27-.45.53-.72.74-.66.51-1.48.8-2.3.82h-.04s0,.04,0,.04c.03.44.18,1.11.29,1.6.06.26.29.44.56.44.04,0,.07,0,.1,0,.27-.05.65-.13.95-.22.46-.15.93-.38,1.39-.68.35-.23.65-.51.92-.8.91,1,2.18,1.68,3.6,1.81.18.02.36.03.55.03,1.26,0,2.5-.44,3.49-1.22.1-.08.2-.17.3-.26.3,1.16.03,2.46-.7,3.4-.73.95-1.93,1.55-3.13,1.55h-.02c-1.19,0-2.39-.58-3.12-1.52-.02-.02-.04-.05-.06-.07-.13-.17-.27-.35-.48-.44-.17-.07-.35-.07-.51-.07h-1.69s.02.05.02.05c.71,2.15,2.69,3.82,4.92,4.16.29.04.58.06.87.06,1.96,0,3.92-.97,5.07-2.58,1.31-1.84,1.49-4.43.44-6.43h0c.12-.12.24-.22.38-.31.54-.37,1.17-.6,1.82-.64.09,0,.18,0,.27,0,.16,0,.31.01.46.03-.11-.61-.28-1.19-.51-1.75-.05-.12-.18-.2-.31-.19-1.2.08-2.35.55-3.26,1.33h0ZM22.32,19.39c-.41.46-.93.82-1.51,1.03-.4.14-.82.22-1.24.22-.19,0-.37-.01-.55-.04-.94-.14-1.76-.63-2.32-1.34.02-.02.03-.03.04-.05.67-.69,1.73-1.11,2.76-1.11,1.09,0,2.11.44,2.87,1.23h0s-.04.05-.06.07ZM22.92,18.58c-.11.14-.21.29-.31.44-.07-.08-.14-.16-.22-.23h0c-.13-.12-.27-.23-.41-.32-.72-.5-1.58-.76-2.47-.76-1.15,0-2.29.46-3.04,1.23-.27.28-.51.57-.75.85-.44.53-.86,1.04-1.43,1.41-.43.29-.87.5-1.29.64-.22.07-.53.14-.9.21-.1.02-.19-.05-.21-.14-.11-.46-.2-.87-.24-1.19.78-.09,1.53-.4,2.15-.87.41-.32.72-.71,1.02-1.09.2-.26.39-.5.61-.72,1.09-1.09,2.58-1.72,4.09-1.72,1.32,0,2.56.44,3.6,1.27.13.1.26.22.39.35h0c-.21.21-.39.43-.57.66ZM24.61,19.57s.04-.05.06-.07c.9,1.82.74,4.17-.42,5.84-1.16,1.68-3.31,2.67-5.35,2.45-2.01-.21-3.89-1.6-4.69-3.46h1.15c.11,0,.23,0,.33.04.13.06.23.18.32.3l.02.03c.79,1.04,2.09,1.7,3.4,1.73,1.31.02,2.63-.59,3.46-1.61.41-.5.71-1.11.86-1.76.14-.6.15-1.22.02-1.96-.01-.07-.03-.15-.05-.22,0-.03-.02-.07-.03-.1v-.03c.08-.1.17-.19.25-.29.24-.28.44-.59.66-.88Z"/>
      <path class="cls-1" d="M19.7,8.59c-6.13,0-11.11,4.98-11.11,11.11s4.98,11.11,11.11,11.11,11.11-4.98,11.11-11.11-4.98-11.11-11.11-11.11ZM19.7,29.75c-5.54,0-10.05-4.51-10.05-10.05s4.51-10.05,10.05-10.05,10.05,4.51,10.05,10.05-4.51,10.05-10.05,10.05Z"/>
      <path class="cls-1" d="M19.7,0C8.84,0,0,8.84,0,19.7s8.84,19.7,19.7,19.7,19.7-8.84,19.7-19.7S30.56,0,19.7,0ZM1.21,19.7C1.21,9.51,9.51,1.21,19.7,1.21s18.49,8.29,18.49,18.49-8.29,18.49-18.49,18.49S1.21,29.89,1.21,19.7Z"/>
    </g>
  </g>
</svg>