<?xml version="1.0" encoding="UTF-8"?>
<svg id="Layer_2" data-name="Layer 2" xmlns="http://www.w3.org/2000/svg" viewBox="0 0 36.32 36.32">
  <defs>
    <style>
      .cls-1 {
        fill: #231f20;
        stroke-width: 0px;
      }
    </style>
  </defs>
  <g id="Layer_1-2" data-name="Layer 1">
    <g>
      <path class="cls-1" d="M18.16,22.38c-2.58,0-4.68-2.1-4.68-4.67s2.1-4.68,4.68-4.68,4.68,2.1,4.68,4.68-2.1,4.67-4.68,4.67ZM18.16,14.61c-1.71,0-3.1,1.39-3.1,3.1s1.39,3.09,3.1,3.09,3.09-1.39,3.09-3.09-1.39-3.1-3.09-3.1Z"/>
      <g>
        <path class="cls-1" d="M18.16,36.32c-.44,0-.79-.35-.79-.79v-10.29c0-.44.35-.79.79-.79s.79.35.79.79v10.29c0,.44-.35.79-.79.79ZM35.53,18.95h-10.29c-.44,0-.79-.35-.79-.79s.35-.79.79-.79h10.29c.44,0,.79.35.79.79s-.35.79-.79.79ZM11.08,18.95H.79c-.44,0-.79-.35-.79-.79s.35-.79.79-.79h10.29c.44,0,.79.35.79.79s-.35.79-.79.79ZM18.16,11.87c-.44,0-.79-.35-.79-.79V.79c0-.44.35-.79.79-.79s.79.35.79.79v10.29c0,.44-.35.79-.79.79Z"/>
        <path class="cls-1" d="M25.93,26.72c-.2,0-.4-.08-.56-.23l-4.6-4.6c-.31-.31-.31-.81,0-1.12s.81-.31,1.12,0l4.6,4.6c.31.31.31.81,0,1.12-.15.15-.36.23-.56.23ZM10.39,26.72c-.2,0-.4-.08-.56-.23-.31-.31-.31-.81,0-1.12l4.6-4.6c.31-.31.81-.31,1.12,0s.31.81,0,1.12l-4.6,4.6c-.15.15-.36.23-.56.23ZM21.33,15.78c-.2,0-.4-.08-.56-.23-.31-.31-.31-.81,0-1.12l4.6-4.6c.31-.31.81-.31,1.12,0s.31.81,0,1.12l-4.6,4.6c-.15.15-.36.23-.56.23ZM14.99,15.78c-.2,0-.4-.08-.56-.23l-4.6-4.6c-.31-.31-.31-.81,0-1.12s.81-.31,1.12,0l4.6,4.6c.31.31.31.81,0,1.12-.15.15-.36.23-.56.23Z"/>
      </g>
    </g>
  </g>
</svg>