<?xml version="1.0" encoding="UTF-8"?>
<svg id="Layer_2" data-name="Layer 2" xmlns="http://www.w3.org/2000/svg" viewBox="0 0 26.74 26.74">
  <defs>
    <style>
      .cls-1 {
        stroke-width: 0px;
      }
    </style>
  </defs>
  <g id="Layer_1-2" data-name="Layer 1">
    <g>
      <path class="cls-1" d="M13.38,6.68c.26,0,.41-.18.41-.5,0-1.89,0-3.78,0-5.67,0-.34-.14-.52-.42-.52-.27,0-.42.18-.42.51,0,.94,0,1.88,0,2.82,0,.95,0,1.9,0,2.85,0,.33.16.51.43.5Z"/>
      <path class="cls-1" d="M26.22,12.95c-1.88,0-3.75,0-5.63,0-.03,0-.05,0-.08,0-.27,0-.45.16-.45.4,0,.26.16.43.45.43.96,0,1.93,0,2.89,0h0c.94,0,1.88,0,2.82,0,.35,0,.53-.15.53-.43,0-.26-.19-.41-.52-.41Z"/>
      <path class="cls-1" d="M13.76,20.33c-.08-.2-.24-.3-.46-.27-.24.04-.35.2-.35.44,0,.96,0,1.93,0,2.89,0,.95,0,1.89,0,2.84,0,.31.15.49.4.5.27,0,.43-.17.43-.5,0-1.89,0-3.79,0-5.68,0-.08,0-.16-.03-.23Z"/>
      <path class="cls-1" d="M5.76,12.95c-1.75,0-3.5,0-5.25,0-.33,0-.51.15-.51.42,0,.27.18.41.52.41.87,0,1.74,0,2.61,0h0c.88,0,1.76,0,2.64,0,.32,0,.51-.16.5-.44,0-.25-.19-.4-.51-.4Z"/>
      <path class="cls-1" d="M3.54,8.15c.61.36,1.22.72,1.85,1.07.29.16.62-.06.61-.44-.04-.06-.1-.2-.2-.27-.61-.37-1.22-.72-1.84-1.07-.21-.12-.45-.03-.56.17-.11.19-.06.42.14.54Z"/>
      <path class="cls-1" d="M8.51,5.76c.07.12.23.19.29.24.4-.01.59-.35.43-.65-.33-.6-.68-1.19-1.03-1.78-.13-.23-.37-.29-.58-.17-.2.12-.27.36-.14.59.34.6.68,1.19,1.03,1.78Z"/>
      <path class="cls-1" d="M18.16,20.96c-.13-.23-.38-.27-.59-.14-.19.12-.25.36-.13.57.34.6.67,1.19,1.03,1.78.07.12.23.19.29.23.4,0,.6-.34.45-.62-.34-.61-.69-1.22-1.05-1.83Z"/>
      <path class="cls-1" d="M21.28,17.52c-.2-.11-.43-.02-.54.16-.11.19-.08.43.12.55.62.38,1.25.74,1.89,1.09.27.14.59-.1.58-.46-.04-.06-.08-.2-.18-.26-.61-.37-1.24-.73-1.87-1.08Z"/>
      <path class="cls-1" d="M8.95,20.75c-.2-.09-.39-.01-.51.19-.33.58-.67,1.15-1,1.73-.15.26-.1.5.12.63.21.13.45.04.61-.22.33-.56.65-1.12.97-1.69.05-.08.08-.17.14-.32-.1-.11-.2-.27-.33-.33Z"/>
      <path class="cls-1" d="M19.03,3.41c-.2-.09-.39,0-.5.21-.33.58-.67,1.16-1,1.74-.14.25-.08.49.13.61.21.12.46.04.6-.2.34-.58.67-1.16,1-1.74.04-.07.06-.16.12-.31-.1-.1-.2-.26-.34-.32Z"/>
      <path class="cls-1" d="M21.37,9.26c.59-.33,1.18-.67,1.76-1.02.12-.07.18-.23.23-.28,0-.43-.34-.61-.66-.43-.58.33-1.16.66-1.74,1-.24.14-.31.38-.18.6.12.2.35.27.59.13Z"/>
      <path class="cls-1" d="M5.31,17.48c-.07.04-.14.08-.2.11-.52.3-1.05.6-1.57.91-.18.11-.26.27-.2.49.06.2.2.29.45.3.05-.02.14-.04.22-.09.21-.11.41-.23.61-.35.37-.21.74-.42,1.1-.64.24-.14.31-.38.18-.6-.12-.2-.35-.26-.59-.14Z"/>
      <path class="cls-1" d="M13.87,9.98h-2.18c.31.39.76.58,1.18.58s.82-.2,1-.58Z"/>
      <path class="cls-1" d="M15.91,10.64c-.49-.22-.99-.41-1.42-.58-.17.13-.31.24-.43.36-.37.33-.78.55-1.25.55-.13,0-.26-.02-.4-.06-.47-.11-.84-.4-1.15-.76-.04-.06-.09-.08-.14-.08-.03,0-.06.01-.1.02-.35.17-.71.32-1.07.48-.46.21-.79.54-.97,1.01-.13.33-.26.65-.39.97-.09.22-.18.44-.28.68.55.15,1.08.3,1.62.45v-.2c0-.31,0-.62.01-.93,0-.08.06-.17.12-.21.02-.01.06-.01.09-.01.05,0,.11.01.13.03.06.05.08.15.08.23.01,1.64.01,3.28.01,4.91,0,.21.01.24.22.28.56.1,1.13.21,1.7.27.27.02.54.03.81.03.69,0,1.37-.08,2.05-.28.16-.05.2-.12.2-.28v-4.96c0-.15.09-.25.22-.25.14,0,.21.09.22.25v.97s0,.08.01.14c.52-.16,1.03-.31,1.54-.47-.2-.54-.39-1.06-.58-1.59-.16-.43-.44-.77-.85-.97Z"/>
      <path class="cls-1" d="M18.43,13.72c.13-.27.13-.56.02-.88l-.2-.55c-.13-.34-.25-.68-.38-1.02-.28-.81-.85-1.4-1.67-1.74-.46-.19-.93-.38-1.4-.56-.18-.07-.39-.1-.59-.1-.47,0-.95,0-1.42,0s-.95,0-1.42,0c-.22,0-.44.04-.65.13-.45.19-.89.38-1.33.59-.7.32-1.2.84-1.49,1.54l-.68,1.69c-.17.41-.09.72,0,.91.09.18.28.43.7.55.43.12.85.24,1.28.36v2.92c0,.65.36,1.11,1,1.28.69.18,1.41.29,2.12.34.24,0,.49.02.73.02.89,0,1.7-.11,2.48-.34.67-.21.99-.63.99-1.34v-2.89c.41-.12.81-.25,1.22-.37.41-.13.6-.37.69-.54ZM17.53,13.56c-.54.16-1.07.32-1.6.48-.11.03-.15.07-.15.19,0,1.09,0,2.19,0,3.29,0,.38-.11.52-.47.63-.75.23-1.51.32-2.27.32-.23,0-.46-.01-.69-.02-.67-.05-1.33-.15-1.98-.32-.31-.08-.45-.25-.45-.57v-1.65c0-.57,0-1.13.01-1.69,0-.1-.03-.14-.13-.17-.56-.15-1.12-.32-1.68-.48-.27-.07-.33-.22-.23-.47.23-.57.45-1.13.68-1.69.22-.54.6-.92,1.12-1.16.43-.2.87-.39,1.31-.57.11-.05.24-.08.37-.08h2.83c.11,0,.23.02.33.06.46.18.92.36,1.38.55.61.25,1.04.68,1.26,1.31.19.52.39,1.04.58,1.57.09.25.02.39-.23.47Z"/>
    </g>
  </g>
</svg>