<?xml version="1.0" encoding="UTF-8"?>
<svg id="Layer_2" data-name="Layer 2" xmlns="http://www.w3.org/2000/svg" viewBox="0 0 169.55 169.55">
  <defs>
    <style>
      .cls-1 {
        fill: #231f20;
      }

      .cls-1, .cls-2 {
        stroke-width: 0px;
      }

      .cls-2 {
        fill: #fff;
      }
    </style>
  </defs>
  <g id="Layer_1-2" data-name="Layer 1">
    <g>
      <path class="cls-2" d="M166.94,84.78c0,45.38-36.79,82.17-82.17,82.17S2.61,130.16,2.61,84.78,39.4,2.61,84.78,2.61s82.17,36.79,82.17,82.17"/>
      <path class="cls-1" d="M84.78,169.55C38.03,169.55,0,131.52,0,84.78S38.03,0,84.78,0s84.78,38.03,84.78,84.78-38.03,84.78-84.78,84.78ZM84.78,5.22C40.91,5.22,5.22,40.91,5.22,84.78s35.69,79.56,79.56,79.56,79.56-35.69,79.56-79.56S128.65,5.22,84.78,5.22Z"/>
      <path class="cls-1" d="M162.22,84.78c0,42.77-34.67,77.45-77.45,77.45S7.33,127.55,7.33,84.78,42,7.33,84.78,7.33s77.45,34.67,77.45,77.45"/>
      <path class="cls-2" d="M134.31,84.78c0,27.36-22.18,49.54-49.54,49.54s-49.54-22.18-49.54-49.54,22.18-49.54,49.54-49.54,49.54,22.18,49.54,49.54"/>
      <path class="cls-1" d="M117.74,71.09c-.22-.54-.76-.87-1.34-.83-5.16.33-10.12,2.36-14.04,5.7h-.01c-4.98-4.84-11.52-7.49-18.42-7.49-5.53,0-11.01,1.83-15.55,5.11,0-.21-.02-.41-.02-.62,0-8.73,7.1-15.83,15.83-15.83,5.51,0,10.38,2.83,13.21,7.12.48.73,1.31,1.16,2.18,1.16h7.52c-3.18-9.62-12.25-16.58-22.92-16.58-13.3,0-24.13,10.82-24.13,24.13,0,2.76.47,5.41,1.33,7.88-.92,1.15-1.92,2.27-3.11,3.19-2.83,2.18-6.35,3.44-9.92,3.54h-.18s.01.18.01.18c.13,1.9.76,4.79,1.27,6.89.27,1.13,1.27,1.91,2.42,1.91.15,0,.3-.01.45-.04,1.16-.21,2.8-.55,4.07-.96,1.98-.64,3.99-1.62,5.98-2.93,1.5-.99,2.78-2.18,3.95-3.44,3.92,4.31,9.38,7.21,15.5,7.8.77.08,1.56.12,2.35.12,5.44,0,10.78-1.87,15.03-5.27.44-.35.86-.72,1.27-1.1,1.27,4.97.13,10.58-3,14.65-3.14,4.09-8.3,6.66-13.46,6.69h-.1c-5.13,0-10.27-2.49-13.44-6.52-.08-.1-.16-.2-.24-.31-.58-.75-1.18-1.52-2.06-1.91-.71-.31-1.51-.3-2.21-.3h-7.29s.07.23.07.23c3.05,9.25,11.56,16.44,21.19,17.9,1.24.19,2.49.28,3.74.28,8.45,0,16.88-4.19,21.8-11.1,5.65-7.93,6.41-19.05,1.88-27.67l-.02-.04c.5-.47,1.04-.9,1.63-1.31,2.31-1.6,5.04-2.56,7.85-2.76.38-.03.76-.04,1.14-.04.67,0,1.32.04,1.97.13-.46-2.62-1.21-5.14-2.2-7.53M89.53,87.87c-1.71.61-3.52.93-5.34.93-.8,0-1.58-.06-2.35-.18-4.03-.6-7.56-2.73-10-5.77.06-.07.13-.14.19-.21,2.88-2.95,7.44-4.79,11.89-4.79,4.7,0,9.08,1.88,12.35,5.29l.02.02c-.08.1-.17.2-.25.3-1.76,1.98-4.01,3.52-6.51,4.41"/>
      <path class="cls-2" d="M98.64,79.94c-.47.62-.91,1.27-1.35,1.9-.29-.33-.62-.67-.97-1h0c-.57-.5-1.16-.97-1.77-1.39-3.12-2.15-6.79-3.29-10.62-3.29-4.96,0-9.86,1.98-13.1,5.3-1.16,1.19-2.2,2.45-3.22,3.67-1.9,2.29-3.7,4.46-6.15,6.07-1.86,1.23-3.74,2.15-5.57,2.74-.94.3-2.27.61-3.86.91-.42.08-.82-.19-.92-.6-.48-1.99-.84-3.75-1.05-5.11,3.37-.4,6.57-1.7,9.25-3.76,1.79-1.37,3.1-3.07,4.37-4.71.87-1.12,1.68-2.17,2.63-3.12,4.71-4.69,11.12-7.38,17.61-7.38,5.69,0,11.04,1.88,15.48,5.45.57.42,1.13.94,1.67,1.52h0c-.88.88-1.69,1.83-2.45,2.82M104.32,109.06c-5.01,7.24-14.25,11.48-23.01,10.55-8.67-.92-16.75-6.89-20.19-14.9l4.94-.02c.46,0,.99,0,1.44.19.57.24.98.78,1.37,1.3l.1.13c3.4,4.48,9.01,7.33,14.64,7.42,5.63.1,11.33-2.55,14.89-6.91,1.76-2.16,3.04-4.79,3.7-7.59.6-2.57.63-5.25.08-8.44-.05-.32-.14-.63-.21-.93-.04-.15-.08-.3-.11-.45l-.03-.12c.38-.41.75-.83,1.11-1.26,1.01-1.22,1.9-2.54,2.86-3.8.08-.11.17-.21.25-.32,3.89,7.85,3.16,17.93-1.82,25.14"/>
      <path class="cls-1" d="M84.78,132.59c-26.36,0-47.81-21.45-47.81-47.81s21.45-47.81,47.81-47.81,47.81,21.45,47.81,47.81-21.45,47.81-47.81,47.81ZM84.78,41.52c-23.85,0-43.26,19.41-43.26,43.26s19.41,43.26,43.26,43.26,43.26-19.41,43.26-43.26-19.41-43.26-43.26-43.26Z"/>
      <path class="cls-1" d="M84.78,169.55C38.03,169.55,0,131.52,0,84.78S38.03,0,84.78,0s84.78,38.03,84.78,84.78-38.03,84.78-84.78,84.78ZM84.78,5.22C40.91,5.22,5.22,40.91,5.22,84.78s35.69,79.56,79.56,79.56,79.56-35.69,79.56-79.56S128.65,5.22,84.78,5.22Z"/>
      <path class="cls-2" d="M36.38,90.41H6.68v-2.6h29.7v2.6ZM36.38,75.74H6.68v-2.6h29.7v2.6ZM162.33,90.41h-29.7v-2.6h29.7v2.6ZM162.33,75.74h-29.7v-2.6h29.7v2.6Z"/>
      <path class="cls-2" d="M13.66,82.9c.14.81.86.92,1.36.92s1.2-.14,1.2-.77c0-1.31-3.66-.47-3.66-2.77,0-1.27,1.19-1.86,2.3-1.86,1.29,0,2.47.56,2.47,1.98l-1.31-.19c-.16-.72-.79-.74-1.22-.74s-.93.18-.93.7c0,.46.29.56,1.84.93.46.11,1.83.4,1.83,1.79,0,1.13-.88,1.97-2.56,1.97-1.38,0-2.62-.67-2.62-2.19l1.31.22ZM18.2,84.68v-6.14h1.33v5h3.16v1.14h-4.48ZM29.22,84.73h-1.86l-1.6-1.73-.8,1.11v.61h-1.38v-6.17h1.38v3.49l2.41-3.49h1.68l-2.32,3.49,2.5,2.67ZM140.54,82.9c.14.81.86.92,1.36.92.47,0,1.2-.14,1.2-.77,0-1.31-3.67-.47-3.67-2.77,0-1.27,1.19-1.86,2.3-1.86,1.28,0,2.47.56,2.47,1.98l-1.31-.19c-.16-.72-.79-.74-1.22-.74s-.93.18-.93.7c0,.46.29.56,1.84.93.46.11,1.83.4,1.83,1.79,0,1.13-.88,1.97-2.56,1.97-1.38,0-2.62-.67-2.62-2.19l1.31.22ZM148.17,84.74c-1.72,0-3.12-1.4-3.12-3.12s1.4-3.12,3.12-3.12c1.18,0,2.18.65,2.71,1.6-.53.28-.57.3-1.16.59-.3-.53-.89-.89-1.55-.89-1.01,0-1.83.83-1.83,1.83s.82,1.83,1.83,1.83c.69,0,1.29-.37,1.6-.96.59.3.6.34,1.16.59-.53.99-1.54,1.66-2.76,1.66M155.8,82.45l1.73,2.28h-1.66l-1.55-2.22h-.66v2.22h-1.36v-6.16h2.78c1.55,0,2.15.97,2.15,1.97,0,.84-.44,1.68-1.47,1.91h.05ZM153.65,79.62v1.85h1.05c.65,0,1.18-.15,1.18-.93s-.53-.92-1.18-.92h-1.05Z"/>
    </g>
  </g>
</svg>