<?xml version="1.0" encoding="UTF-8"?>
<svg id="Layer_2" data-name="Layer 2" xmlns="http://www.w3.org/2000/svg" viewBox="0 0 78.6 78.6">
  <defs>
    <style>
      .cls-1 {
        stroke-width: 0px;
      }
    </style>
  </defs>
  <g id="Layer_1-2" data-name="Layer 1">
    <g>
      <polygon class="cls-1" points="60.29 59.73 58.43 58.84 58.43 58.85 59.07 60.81 60.29 59.73"/>
      <path class="cls-1" d="M72.26,37.34c0-.37-.25-.43-.55-.43h-.49v.86h.49c.3,0,.55-.07.55-.43Z"/>
      <path class="cls-1" d="M62.11,41.91c-1.3,11.45-11.01,20.35-22.81,20.35s-21.52-8.9-22.81-20.35H3.49c1.34,18.61,16.86,33.29,35.81,33.29s34.47-14.68,35.81-33.29h-12.99ZM14.26,54.29l-.81.51-1.19-1.9-.89.55,1.13,1.81c.19.3.1.69-.2.87l-.23.14-2.02-3.23,4.17-2.61,1.9,3.03-.77.48-1.34-2.15-.94.59,1.19,1.9ZM20.6,60.35l-.39-.47c-.15-.18-.21-.42-.18-.65.03-.35-.23-.6-.42-.78-.25-.23-.65-.39-.92-.09-.25.27-.13.49.58,1.53.21.31.87,1.21.12,2.04-.61.67-1.58.69-2.57-.21-.81-.74-1.19-1.8-.37-2.7l.32.41c.17.21.25.48.2.74-.08.41.2.74.44.96.28.25.78.56,1.12.19.7-.77-1.91-2.24-.68-3.6.68-.75,1.7-.46,2.36.14.76.69,1.15,1.65.39,2.49ZM28.03,64.08l-1.38-.69-1.78,3.58-.97-.48,1.78-3.58-.95-.47c-.24-.12-.34-.42-.22-.66l.18-.36,3.75,1.86-.4.81ZM34.75,69.96l-.28-1.16-2.44-.45-.7.97-.97-.18,3.08-4.42,1.07.2,1.27,5.22-1.03-.19ZM45.23,69.66l-.48-3.44h-.01s-.77,2.36-.77,2.36l-.82.12-1.38-2.03h-.01s.48,3.4.48,3.4l-1.01.14-.68-4.86,1.39-.19,1.42,1.99.8-2.3,1.41-.2.68,4.86-1,.14ZM53,65.18l-1.02.49.76,1.58-.97.47-2.13-4.42,1.99-.96c1.11-.53,1.87-.04,2.21.68.35.72.26,1.62-.85,2.15ZM62.33,60.7l-1.08-.49-1.85,1.65.34,1.15-.73.65-1.6-5.14.81-.72,4.9,2.2-.78.69ZM66.95,54.96l-.56.93-4.21-2.53,1.14-1.9c.64-1.06,1.55-1.07,2.23-.65.57.34.97.99.7,1.78l.02-.04,2.27-.24-.68,1.13-2.15.15-.27.45,1.51.91Z"/>
      <path class="cls-1" d="M51.74,63.23l-.76.36.64,1.32.76-.36c.45-.21.81-.51.54-1.07-.27-.56-.73-.47-1.17-.25Z"/>
      <polygon class="cls-1" points="33.82 65.74 32.66 67.46 34.27 67.75 33.82 65.74 33.82 65.74"/>
      <path class="cls-1" d="M16.86,34.39c2.25-10.33,11.43-18.06,22.43-18.06s19.89,7.49,22.32,17.57h13.18c-2.6-17.27-17.5-30.51-35.5-30.51S6.4,16.64,3.8,33.9h13.06v.49ZM59.35,18.65c1.41-1.1,3.42-.86,4.52.54,1.09,1.39.86,3.42-.55,4.52-1.4,1.1-3.43.84-4.52-.55-1.1-1.4-.85-3.42.55-4.51ZM55.54,11.92l1.15.74-3.07,4.75c-.17.26-.52.34-.78.17l-.67-.44,3.38-5.22ZM44.22,7.59l2.6.65c1.56.39,2.49,1.68,1.99,3.67-.44,1.75-1.66,2.82-3.5,2.36l-2.6-.65,1.51-6.03ZM32.38,7.94c.39-.06.76.21.82.6l.48,3.11c.1.67.38,1.31,1.47,1.14.96-.15,1.21-.61,1.07-1.53l-.58-3.82,1.35-.21.58,3.82c.25,1.66-.6,2.62-2.25,2.87-1.66.25-2.74-.39-3-2.07l-.58-3.82.64-.1ZM25.36,10.34l.59.99-1.68,1,2.59,4.35-1.17.7-2.59-4.35-1.15.68c-.3.18-.69.08-.88-.22l-.26-.43,4.56-2.71ZM16.07,23.92l.6-.55c.2-.18.47-.28.74-.23.55.1.97-.3,1.23-.63.3-.38.64-1.04.14-1.43-1.04-.82-2.65,2.62-4.48,1.19-1.01-.79-.74-2.11-.04-2.99.8-1.02,1.98-1.61,3.11-.72l-.63.6c-.18.17-.42.26-.66.23-.49-.06-.81.32-1.03.6-.27.34-.44.85-.03,1.18.36.28.63.12,1.88-.88.37-.29,1.45-1.21,2.56-.33.9.7,1.02,1.93-.03,3.27-.86,1.1-2.17,1.66-3.37.72Z"/>
      <path class="cls-1" d="M16.33,39.3c0-1.43.14-2.83.39-4.19H3.64c-.16,1.37-.24,2.77-.24,4.19,0,.47.01.94.03,1.4h12.95c-.03-.46-.05-.93-.05-1.4ZM6.94,39.34c-.64,0-1.22-.31-1.22-1.02l.61.1c.06.38.4.43.63.43s.56-.06.56-.36c0-.61-1.7-.22-1.7-1.28,0-.59.55-.86,1.07-.86.6,0,1.14.26,1.14.92l-.61-.09c-.08-.33-.37-.34-.56-.34s-.43.08-.43.32c0,.21.14.26.85.43.21.05.85.18.85.83,0,.52-.41.92-1.19.92ZM10.52,39.25h-2.08v-2.85h.62v2.32h1.46v.53ZM12.68,39.28l-.74-.8-.37.52v.28h-.64v-2.86h.64v1.62l1.12-1.62h.78l-1.08,1.62,1.16,1.24h-.86Z"/>
      <path class="cls-1" d="M65,51.72c-.55-.33-.85-.01-1.12.43l-.43.72,1.27.76.43-.72c.27-.44.39-.87-.15-1.19Z"/>
      <path class="cls-1" d="M47.45,11.71c.31-1.22.07-2.1-1.24-2.43l-.95-.24-.95,3.8,1.18.3c.77.19,1.62-.1,1.96-1.43Z"/>
      <path class="cls-1" d="M62.49,22.66c.82-.64.98-1.84.34-2.66-.64-.82-1.86-.96-2.67-.32-.82.64-.96,1.85-.32,2.67.64.82,1.84.95,2.65.31Z"/>
      <path class="cls-1" d="M62.26,39.3c0,.47-.02.94-.05,1.4h12.95c.02-.47.03-.93.03-1.4,0-1.42-.08-2.81-.24-4.19h-13.08c.25,1.36.39,2.76.39,4.19ZM70.59,36.42h1.29c.72,0,1,.45,1,.92,0,.39-.2.78-.68.88h.02l.8,1.06h-.77l-.72-1.03h-.31v1.03h-.63v-2.86ZM68.69,36.39c.55,0,1.01.3,1.26.74-.24.13-.26.14-.54.27-.14-.24-.41-.41-.72-.41-.47,0-.85.38-.85.85s.38.85.85.85c.32,0,.6-.17.74-.44.27.14.28.16.54.27-.24.46-.72.77-1.28.77-.8,0-1.45-.65-1.45-1.45s.65-1.45,1.45-1.45ZM64.63,37.22c0-.59.55-.86,1.07-.86.6,0,1.14.26,1.14.92l-.61-.09c-.08-.33-.37-.34-.56-.34s-.43.08-.43.32c0,.21.14.26.85.43.21.05.85.18.85.83,0,.52-.41.92-1.19.92-.64,0-1.21-.31-1.21-1.02l.61.1c.06.38.4.43.63.43.22,0,.56-.06.56-.36,0-.61-1.7-.22-1.7-1.28Z"/>
      <path class="cls-1" d="M47.45,35.21c-2.31-2.24-5.34-3.47-8.54-3.47-2.56,0-5.1.85-7.21,2.37,0-.1,0-.19,0-.29,0-4.05,3.29-7.34,7.34-7.34,2.56,0,4.81,1.31,6.13,3.3.22.34.61.54,1.01.54h3.49c-1.47-4.46-5.68-7.69-10.62-7.69-6.17,0-11.19,5.02-11.19,11.19,0,1.28.22,2.51.62,3.65-.43.53-.89,1.05-1.44,1.48-1.31,1.01-2.94,1.59-4.6,1.64h-.08s0,.08,0,.08c.06.88.35,2.22.59,3.19.13.52.59.89,1.12.89.07,0,.14,0,.21-.02.54-.1,1.3-.25,1.89-.44.92-.3,1.85-.75,2.77-1.36.7-.46,1.29-1.01,1.83-1.59,1.82,2,4.35,3.34,7.18,3.62.36.03.72.05,1.09.05,2.52,0,5-.87,6.97-2.44.2-.16.4-.33.59-.51.59,2.3.06,4.9-1.39,6.79-1.46,1.9-3.85,3.08-6.24,3.1h-.04c-2.38,0-4.76-1.16-6.23-3.02-.04-.05-.07-.09-.11-.14-.27-.35-.55-.71-.96-.88-.33-.14-.7-.14-1.03-.14h-3.38s.03.11.03.11c1.41,4.29,5.36,7.62,9.82,8.3.58.09,1.15.13,1.73.13,3.92,0,7.82-1.94,10.11-5.14,2.62-3.68,2.97-8.83.87-12.83v-.02c.22-.22.47-.42.74-.61,1.07-.74,2.34-1.19,3.64-1.28.18-.01.35-.02.53-.02.31,0,.61.02.91.06-.21-1.21-.56-2.38-1.02-3.49-.1-.25-.35-.4-.62-.39-2.39.15-4.69,1.1-6.51,2.64h0ZM44.52,38.69c-.82.92-1.86,1.63-3.02,2.05-.79.28-1.63.43-2.47.43-.37,0-.73-.03-1.09-.08-1.87-.28-3.5-1.27-4.64-2.67.03-.03.06-.06.09-.1,1.34-1.37,3.45-2.22,5.51-2.22,2.18,0,4.21.87,5.72,2.45h0c-.04.05-.08.1-.12.14ZM45.72,37.06c-.22.29-.42.59-.63.88-.14-.15-.29-.31-.45-.46h0c-.26-.23-.54-.45-.82-.64-1.45-1-3.15-1.53-4.92-1.53-2.3,0-4.57.92-6.07,2.46-.54.55-1.02,1.13-1.49,1.7-.88,1.06-1.71,2.07-2.85,2.81-.86.57-1.73,1-2.58,1.27-.44.14-1.05.29-1.79.42-.19.04-.38-.09-.43-.28-.22-.92-.39-1.74-.49-2.37,1.56-.19,3.04-.79,4.29-1.75.83-.64,1.44-1.42,2.03-2.18.4-.52.78-1.01,1.22-1.45,2.18-2.18,5.16-3.42,8.16-3.42,2.64,0,5.12.87,7.18,2.53.26.2.53.43.77.71h0c-.41.41-.78.85-1.14,1.31ZM49.09,39.05s.08-.1.12-.15c1.8,3.64,1.47,8.31-.84,11.65-2.32,3.36-6.61,5.32-10.67,4.89-4.02-.43-7.76-3.19-9.36-6.91h2.29c.22,0,.46,0,.67.08.27.11.45.36.63.6l.05.06c1.58,2.08,4.18,3.4,6.79,3.44,2.61.05,5.25-1.18,6.9-3.2.82-1,1.41-2.22,1.72-3.52.28-1.19.29-2.43.04-3.91-.03-.15-.06-.29-.1-.43-.02-.07-.04-.14-.05-.21v-.05c.16-.19.34-.38.5-.58.47-.57.88-1.18,1.33-1.76Z"/>
      <path class="cls-1" d="M39.3,17.13c-12.22,0-22.16,9.94-22.16,22.16s9.94,22.16,22.16,22.16,22.16-9.94,22.16-22.16-9.94-22.16-22.16-22.16ZM39.3,59.35c-11.06,0-20.05-9-20.05-20.05s9-20.05,20.05-20.05,20.05,9,20.05,20.05-9,20.05-20.05,20.05Z"/>
      <path class="cls-1" d="M39.3,0C17.63,0,0,17.63,0,39.3s17.63,39.3,39.3,39.3,39.3-17.63,39.3-39.3S60.97,0,39.3,0ZM2.42,39.3C2.42,18.96,18.96,2.42,39.3,2.42s36.88,16.54,36.88,36.88-16.54,36.88-36.88,36.88S2.42,59.63,2.42,39.3Z"/>
    </g>
  </g>
</svg>