<?xml version="1.0" encoding="UTF-8"?>
<svg id="Layer_2" data-name="Layer 2" xmlns="http://www.w3.org/2000/svg" viewBox="0 0 793.52 414.74">
  <defs>
    <style>
      .cls-1 {
        fill: #f0edeb;
        stroke: #231f20;
        stroke-miterlimit: 10;
        stroke-width: .25px;
      }
    </style>
  </defs>
  <g id="Layer_1-2" data-name="Layer 1">
    <g>
      <path class="cls-1" d="M294.59,15.62c-10.91,27.09-41.4,46.6-77.33,46.6s-66.42-19.51-77.33-46.6h-69.67v399h288V15.62h-63.67Z"/>
      <path class="cls-1" d="M269.72,3.31c-5.28,20.25-26.74,35.41-52.42,35.41s-47.73-15.57-52.63-36.23l-18.91,10.05c9.56,25.55,37.97,44.09,71.54,44.09s61.84-18.45,71.47-43.9l-19.05-9.41Z"/>
      <path class="cls-1" d="M65.16,208.62L.16,179.62,65.16,16.62c-1.5-1.5,0,192,0,192ZM363.36,208.62l65-29L363.36,16.62c1.5-1.5,0,192,0,192Z"/>
      <path class="cls-1" d="M430.16,208.62l-65-29L430.16,16.62c-1.5-1.5,0,192,0,192ZM728.36,208.62l65-29-65-163c1.5-1.5,0,192,0,192Z"/>
      <path class="cls-1" d="M656.57,11.11c-5.29-4.32-13.68-10.92-15.46-10.92-.11,0-.34-.02-.65-.06-14.68,6.54-36.27,10.67-60.34,10.67s-45.66-4.13-60.34-10.67c-.31.04-.54.06-.65.06-1.78,0-10.17,6.6-15.46,10.92,17.39,9.05,45.16,14.91,76.46,14.91s59.06-5.86,76.46-14.91Z"/>
      <path class="cls-1" d="M662.03,15.62c-19.56,9.12-48.99,14.92-81.91,14.92s-62.35-5.8-81.91-14.92h-62.95v399h288V15.62h-61.23Z"/>
    </g>
  </g>
</svg>