<?xml version="1.0" encoding="UTF-8"?>
<svg id="Layer_2" data-name="Layer 2" xmlns="http://www.w3.org/2000/svg" viewBox="0 0 192 192">
  <defs>
    <style>
      .cls-1 {
        stroke-width: 0px;
      }
    </style>
  </defs>
  <g id="Layer_1-2" data-name="Layer 1">
    <g>
      <polygon class="cls-1" points="147.28 145.9 142.74 143.74 142.73 143.75 144.31 148.55 147.28 145.9"/>
      <path class="cls-1" d="M176.52,91.2c0-.91-.61-1.05-1.34-1.05h-1.19v2.1h1.19c.73,0,1.34-.17,1.34-1.05Z"/>
      <path class="cls-1" d="M151.72,102.37c-3.17,27.98-26.9,49.72-55.73,49.72s-52.56-21.74-55.73-49.72H8.53c3.27,45.46,41.18,81.32,87.47,81.32s84.2-35.87,87.47-81.32h-31.74ZM34.84,132.63l-1.98,1.24-2.9-4.64-2.16,1.35,2.76,4.42c.45.73.23,1.68-.49,2.14l-.56.35-4.94-7.9,10.19-6.37,4.63,7.41-1.88,1.17-3.28-5.25-2.29,1.43,2.9,4.64ZM50.31,147.42l-.94-1.14c-.37-.45-.5-1.02-.45-1.6.09-.85-.56-1.48-1.03-1.91-.62-.56-1.58-.96-2.26-.21-.6.66-.31,1.19,1.43,3.75.51.76,2.11,2.97.29,4.98-1.48,1.63-3.85,1.69-6.28-.51-1.99-1.81-2.9-4.4-.91-6.59l.79,1c.4.51.62,1.17.5,1.81-.19.99.5,1.81,1.08,2.33.68.62,1.91,1.37,2.73.46,1.72-1.89-4.67-5.47-1.66-8.79,1.66-1.83,4.15-1.13,5.76.33,1.85,1.68,2.82,4.04.96,6.09ZM68.47,156.52l-3.38-1.68-4.34,8.73-2.36-1.17,4.35-8.75-2.33-1.16c-.6-.3-.84-1.02-.54-1.62l.44-.89,9.15,4.55-.99,1.98ZM84.88,170.9l-.68-2.82-5.96-1.09-1.72,2.38-2.36-.43,7.51-10.79,2.61.48,3.1,12.74-2.51-.46ZM110.5,170.17l-1.18-8.39h-.03s-1.89,5.78-1.89,5.78l-2.01.28-3.37-4.95h-.03s1.17,8.32,1.17,8.32l-2.48.35-1.66-11.87,3.39-.48,3.48,4.85,1.96-5.61,3.44-.48,1.66,11.87-2.44.34ZM129.48,159.23l-2.5,1.2,1.87,3.87-2.37,1.15-5.2-10.8,4.87-2.35c2.71-1.3,4.56-.09,5.4,1.66.85,1.75.64,3.96-2.07,5.26ZM152.25,148.28l-2.64-1.2-4.52,4.03.82,2.82-1.79,1.6-3.9-12.55,1.98-1.77,11.96,5.37-1.91,1.7ZM163.54,134.26l-1.37,2.27-10.28-6.19,2.79-4.63c1.56-2.59,3.78-2.6,5.45-1.6,1.4.84,2.36,2.42,1.71,4.36l.05-.09,5.54-.58-1.66,2.76-5.25.36-.67,1.11,3.7,2.22Z"/>
      <path class="cls-1" d="M126.38,154.46l-1.85.89,1.56,3.24,1.85-.89c1.09-.52,1.97-1.25,1.31-2.62-.66-1.38-1.78-1.14-2.87-.61Z"/>
      <polygon class="cls-1" points="82.61 160.6 79.79 164.79 83.7 165.51 82.62 160.6 82.61 160.6"/>
      <path class="cls-1" d="M41.2,84.02c5.49-25.22,27.93-44.12,54.8-44.12s48.6,18.3,54.52,42.92h32.19c-6.36-42.18-42.76-74.52-86.71-74.52S15.64,40.64,9.28,82.82h31.91v1.2ZM144.98,45.55c3.43-2.69,8.36-2.09,11.04,1.32,2.66,3.4,2.09,8.36-1.34,11.05-3.42,2.68-8.37,2.05-11.03-1.35-2.68-3.42-2.08-8.34,1.34-11.02ZM135.67,29.12l2.81,1.81-7.5,11.6c-.41.64-1.27.83-1.91.41l-1.64-1.06,8.25-12.76ZM108.01,18.55l6.35,1.6c3.82.96,6.08,4.09,4.86,8.96-1.07,4.27-4.06,6.9-8.56,5.77l-6.35-1.6,3.7-14.73ZM79.09,19.4c.96-.15,1.85.51,2,1.47l1.16,7.6c.25,1.64.92,3.19,3.59,2.79,2.36-.36,2.96-1.48,2.61-3.74l-1.43-9.34,3.3-.51,1.43,9.34c.62,4.06-1.47,6.4-5.49,7.02-4.06.62-6.69-.96-7.32-5.06l-1.43-9.34,1.57-.24ZM61.95,25.26l1.44,2.41-4.11,2.45,6.32,10.62-2.87,1.71-6.33-10.64-2.81,1.67c-.74.44-1.7.2-2.14-.54l-.63-1.05,11.13-6.63ZM39.26,58.44l1.47-1.35c.49-.45,1.15-.68,1.8-.56,1.36.25,2.38-.74,3.01-1.55.72-.92,1.56-2.54.34-3.49-2.54-2-6.48,6.4-10.95,2.9-2.46-1.93-1.8-5.15-.11-7.3,1.96-2.49,4.84-3.93,7.6-1.77l-1.53,1.46c-.43.41-1.02.64-1.6.57-1.2-.15-1.99.78-2.52,1.46-.66.84-1.07,2.08-.06,2.87.89.7,1.53.28,4.6-2.15.91-.72,3.55-2.94,6.27-.82,2.19,1.72,2.49,4.71-.07,7.98-2.1,2.68-5.3,4.06-8.24,1.75Z"/>
      <path class="cls-1" d="M39.9,96c0-3.5.34-6.91.95-10.23H8.9c-.39,3.36-.6,6.77-.6,10.23,0,1.15.03,2.29.07,3.43h31.64c-.07-1.14-.11-2.28-.11-3.43ZM16.95,96.11c-1.56,0-2.97-.76-2.97-2.48l1.48.24c.16.92.98,1.05,1.54,1.05s1.36-.16,1.36-.87c0-1.48-4.15-.53-4.15-3.13,0-1.44,1.35-2.11,2.61-2.11,1.46,0,2.79.63,2.79,2.25l-1.48-.21c-.19-.81-.9-.84-1.38-.84s-1.05.2-1.05.79c0,.52.33.64,2.08,1.05.52.13,2.07.45,2.07,2.03,0,1.28-1,2.24-2.9,2.24ZM25.69,95.89h-5.08v-6.95h1.5v5.66h3.57v1.29ZM30.97,95.94l-1.82-1.95-.91,1.26v.69h-1.56v-6.98h1.56v3.95l2.72-3.95h1.9l-2.63,3.95,2.83,3.03h-2.11Z"/>
      <path class="cls-1" d="M158.79,126.33c-1.34-.81-2.08-.03-2.72,1.04l-1.06,1.75,3.09,1.86,1.05-1.75c.65-1.08.94-2.12-.37-2.9Z"/>
      <path class="cls-1" d="M115.91,28.6c.75-2.97.17-5.13-3.03-5.94l-2.31-.58-2.33,9.29,2.89.73c1.88.47,3.96-.23,4.78-3.49Z"/>
      <path class="cls-1" d="M152.66,55.35c1.99-1.56,2.39-4.5.83-6.49-1.56-1.99-4.54-2.34-6.53-.78-1.99,1.56-2.35,4.52-.79,6.51,1.56,1.99,4.49,2.32,6.49.76Z"/>
      <path class="cls-1" d="M152.09,96c0,1.15-.05,2.29-.11,3.43h31.64c.04-1.14.07-2.28.07-3.43,0-3.46-.21-6.87-.6-10.23h-31.95c.61,3.32.95,6.74.95,10.23ZM172.45,88.97h3.14c1.76,0,2.43,1.1,2.43,2.24,0,.95-.5,1.9-1.66,2.16h.06l1.95,2.59h-1.88l-1.76-2.51h-.75v2.51h-1.54v-6.98ZM167.79,88.89c1.34,0,2.47.74,3.07,1.81-.6.31-.64.34-1.31.66-.34-.6-1.01-1.01-1.76-1.01-1.14,0-2.07.94-2.07,2.07s.93,2.07,2.07,2.07c.78,0,1.47-.42,1.82-1.08.66.34.68.38,1.31.66-.6,1.12-1.75,1.89-3.13,1.89-1.95,0-3.53-1.58-3.53-3.53s1.58-3.54,3.53-3.54ZM157.89,90.91c0-1.44,1.35-2.11,2.61-2.11,1.45,0,2.79.63,2.79,2.25l-1.48-.21c-.18-.81-.9-.84-1.38-.84s-1.05.2-1.05.79c0,.52.33.64,2.08,1.05.52.13,2.07.45,2.07,2.03,0,1.28-1,2.24-2.9,2.24-1.56,0-2.97-.76-2.97-2.48l1.48.24c.16.92.98,1.05,1.54,1.05.54,0,1.36-.16,1.36-.87,0-1.48-4.15-.53-4.15-3.13Z"/>
      <path class="cls-1" d="M115.9,86c-5.64-5.46-13.04-8.47-20.86-8.47-6.26,0-12.46,2.08-17.6,5.79,0-.23-.02-.47-.02-.7,0-9.89,8.04-17.93,17.93-17.93,6.24,0,11.75,3.21,14.96,8.06.55.83,1.48,1.32,2.47,1.32h8.52c-3.6-10.89-13.87-18.77-25.95-18.77-15.07,0-27.32,12.26-27.32,27.32,0,3.12.54,6.12,1.5,8.92-1.05,1.3-2.17,2.57-3.52,3.61-3.2,2.47-7.19,3.89-11.23,4.01h-.2s.01.21.01.21c.15,2.15.87,5.43,1.44,7.8.31,1.27,1.43,2.17,2.74,2.17.17,0,.34-.02.51-.05,1.31-.24,3.17-.62,4.61-1.09,2.24-.72,4.52-1.84,6.77-3.32,1.7-1.12,3.15-2.47,4.48-3.89,4.44,4.88,10.62,8.16,17.55,8.84.88.09,1.76.13,2.66.13,6.16,0,12.2-2.12,17.01-5.97.5-.4.97-.82,1.44-1.25,1.44,5.63.14,11.98-3.39,16.59-3.56,4.64-9.4,7.54-15.24,7.57h-.11c-5.81,0-11.63-2.82-15.22-7.39-.09-.11-.18-.23-.27-.35-.66-.85-1.33-1.73-2.33-2.16-.81-.35-1.72-.34-2.51-.34h-8.26s.08.26.08.26c3.45,10.47,13.09,18.62,23.99,20.27,1.4.21,2.82.32,4.23.32,9.57,0,19.11-4.74,24.69-12.57,6.4-8.98,7.26-21.57,2.13-31.34l-.03-.05c.57-.53,1.18-1.02,1.84-1.48,2.62-1.81,5.71-2.9,8.89-3.13.43-.03.86-.05,1.29-.05.76,0,1.5.05,2.23.14-.52-2.97-1.37-5.82-2.49-8.53-.25-.61-.86-.99-1.51-.95-5.84.38-11.45,2.68-15.9,6.46h-.01ZM108.75,94.5c-1.99,2.25-4.54,3.98-7.37,5-1.93.7-3.99,1.05-6.04,1.05-.9,0-1.79-.07-2.66-.2-4.56-.68-8.56-3.09-11.32-6.53.07-.08.14-.16.22-.23,3.26-3.34,8.42-5.42,13.46-5.42,5.32,0,10.29,2.13,13.98,5.99l.02.02c-.09.11-.19.22-.28.33ZM111.69,90.53c-.53.7-1.03,1.43-1.53,2.15-.33-.38-.7-.76-1.09-1.13h0c-.64-.57-1.32-1.1-2-1.57-3.53-2.44-7.69-3.73-12.02-3.73-5.62,0-11.16,2.24-14.83,6-1.32,1.35-2.5,2.77-3.64,4.15-2.15,2.6-4.19,5.05-6.96,6.87-2.11,1.39-4.23,2.43-6.3,3.1-1.06.34-2.58.7-4.37,1.03-.47.09-.93-.22-1.05-.68-.54-2.25-.95-4.25-1.19-5.78,3.82-.46,7.44-1.93,10.47-4.26,2.02-1.56,3.51-3.47,4.95-5.33.98-1.27,1.91-2.46,2.98-3.53,5.33-5.31,12.6-8.36,19.94-8.36,6.44,0,12.5,2.13,17.53,6.17.65.48,1.28,1.06,1.89,1.72h0c-1,1-1.92,2.07-2.77,3.19ZM119.91,95.39c.09-.12.19-.24.28-.36,4.4,8.89,3.58,20.31-2.06,28.47-5.67,8.2-16.14,13-26.05,11.95-9.82-1.04-18.97-7.8-22.86-16.87l5.6-.02c.53,0,1.12,0,1.63.21.65.28,1.11.88,1.55,1.47l.11.15c3.85,5.07,10.2,8.29,16.58,8.41,6.38.11,12.83-2.89,16.86-7.83,2-2.45,3.45-5.42,4.19-8.6.68-2.91.71-5.94.09-9.56-.06-.36-.15-.71-.24-1.06-.05-.17-.09-.34-.13-.51l-.03-.13c.43-.46.85-.94,1.26-1.42,1.15-1.39,2.15-2.88,3.24-4.31Z"/>
      <path class="cls-1" d="M96,41.86c-29.85,0-54.14,24.29-54.14,54.14s24.29,54.14,54.14,54.14,54.14-24.29,54.14-54.14-24.29-54.14-54.14-54.14ZM96,144.98c-27.01,0-48.99-21.98-48.99-48.99s21.98-48.99,48.99-48.99,48.99,21.98,48.99,48.99-21.98,48.99-48.99,48.99Z"/>
      <path class="cls-1" d="M96,0C43.06,0,0,43.06,0,96s43.06,96,96,96,96-43.06,96-96S148.93,0,96,0ZM5.91,96C5.91,46.32,46.32,5.91,96,5.91s90.09,40.42,90.09,90.09-40.42,90.09-90.09,90.09S5.91,145.67,5.91,96Z"/>
    </g>
  </g>
</svg>